<?xml version="1.0" encoding="UTF-8" standalone="no"?>
<!-- Created with Inkscape (http://www.inkscape.org/) -->

<svg
   xmlns:dc="http://purl.org/dc/elements/1.1/"
   xmlns:cc="http://creativecommons.org/ns#"
   xmlns:rdf="http://www.w3.org/1999/02/22-rdf-syntax-ns#"
   xmlns:svg="http://www.w3.org/2000/svg"
   xmlns="http://www.w3.org/2000/svg"
   xmlns:sodipodi="http://sodipodi.sourceforge.net/DTD/sodipodi-0.dtd"
   xmlns:inkscape="http://www.inkscape.org/namespaces/inkscape"
   width="210mm"
   height="297mm"
   viewBox="0 0 744.09448819 1052.3622047"
   id="svg2"
   version="1.1"
   inkscape:version="0.91 r13725"
   sodipodi:docname="haar.svg">
  <defs
     id="defs4" />
  <sodipodi:namedview
     id="base"
     pagecolor="#ffffff"
     bordercolor="#666666"
     borderopacity="1.0"
     inkscape:pageopacity="0.0"
     inkscape:pageshadow="2"
     inkscape:zoom="0.35"
     inkscape:cx="1303.5714"
     inkscape:cy="177.14286"
     inkscape:document-units="px"
     inkscape:current-layer="layer1"
     showgrid="false"
     inkscape:window-width="1920"
     inkscape:window-height="1016"
     inkscape:window-x="0"
     inkscape:window-y="27"
     inkscape:window-maximized="1" />
  <metadata
     id="metadata7">
    <rdf:RDF>
      <cc:Work
         rdf:about="">
        <dc:format>image/svg+xml</dc:format>
        <dc:type
           rdf:resource="http://purl.org/dc/dcmitype/StillImage" />
        <dc:title />
      </cc:Work>
    </rdf:RDF>
  </metadata>
  <g
     inkscape:label="Layer 1"
     inkscape:groupmode="layer"
     id="layer1">
    <path
       style="fill:#000000;fill-opacity:1;fill-rule:evenodd;stroke:#00db00;stroke-width:23.51190758;stroke-linecap:butt;stroke-linejoin:round;stroke-miterlimit:4;stroke-dasharray:none;stroke-dashoffset:0;stroke-opacity:1"
       d="m 105.5986,782.09957 c -13.644079,-7.11391 -36.984066,7.58625 -50.422936,0 C 47.737053,777.90046 42.984741,745.81432 39.660923,738.30909 31.245698,719.30747 36.243115,651.76882 28.024858,633.21194 20.137267,615.4017 19.827044,605.94314 12.51011,589.42145 c -1.135209,-2.5633 -2.259824,-126.26875 0,-131.37145 16.32184,-36.8548 33.120597,-68.04657 58.180308,-96.33905 11.391143,-12.86063 16.499868,-63.53107 27.150813,-87.58097 4.576849,-10.33454 52.904289,-53.9493 58.180309,-56.92763 4.35615,-2.45906 20.30796,-1.03249 23.27212,-4.37905 1.29047,-1.45696 -0.26092,-16.63246 0,-17.51617 0.53725,-1.81967 54.00672,-63.32974 58.1803,-65.68572 26.18763,-14.78297 86.10689,-4.37907 120.23931,-4.37907 19.64743,0 79.30992,-14.3466 89.20979,-8.75809 9.88929,5.58251 20.09414,35.82348 27.15081,43.79049 9.77897,11.04046 50.05917,4.17368 65.93769,13.13712 15.85724,8.95145 20.10826,46.38354 31.0295,52.54859 17.14064,9.67594 108.90654,4.72148 112.48192,8.75809 14.3361,16.18551 0.52789,96.93506 7.75738,105.09716 3.66484,4.13763 4.40542,9.94751 7.75739,17.51618 5.28593,11.93573 21.78724,15.83977 27.1508,21.89527 8.56451,9.66936 3.87869,127.63623 3.87869,153.26667 0,9.65628 5.32207,50.91899 0,56.92763 -4.52514,5.10888 -22.62568,-5.10889 -27.15081,0 -7.73448,8.73225 7.73445,113.88109 0,122.61337 -7.48112,8.44619 -26.10793,29.4759 -34.9082,39.41142 -6.18611,6.98413 -17.086,6.15301 -23.27212,13.13714 -3.87868,4.37906 -3.87868,13.13714 -7.75738,17.51619 -3.97757,4.4907 -3.87868,-30.3809 -3.87868,-35.03239 0,-17.02937 12.11822,-26.81864 19.39344,-35.03236 5.50737,-6.21784 0,-51.53605 0,-61.3067 0,-2.67228 1.51128,-15.80994 0,-17.51618 -11.58855,-13.08351 -28.91164,-41.39942 -38.78685,-52.54857 -6.71883,-7.58557 -21.21009,-8.48101 -27.15083,-21.89526 -11.85888,-26.77742 -6.2648,-39.41142 -38.78687,-39.41142 -27.62764,0 -28.86062,19.44657 -42.66556,35.03238 -1.79299,2.02428 -9.29423,-1.32198 -11.63607,0 -33.91293,19.14389 -86.99706,0.94043 -108.60323,13.13714 -5.63328,3.17999 -4.42805,13.75736 -7.75738,17.51618 -1.93538,2.18505 -16.35639,0 -19.39343,0 -18.80508,0 -61.11926,9.28859 -77.57375,0 -14.22086,-8.02769 -12.12765,-26.8293 -19.39344,-35.03237 -3.66205,-4.13446 -3.6066,19.55212 -7.75737,21.89523 -9.04693,5.10701 -32.32644,0 -42.66556,0 -32.85153,0 -76.62823,-4.37904 -93.08849,-4.37904 -3.87868,0 -8.89341,-3.09645 -11.63606,0 -4.65144,5.2515 -0.60901,14.51229 -3.87869,21.89524 -10.619158,23.97813 -39.083696,131.70656 -46.544246,140.12956 -5.507369,6.21781 0,51.53602 0,61.30666"
       id="path3356"
       inkscape:connector-curvature="0" />
  </g>
</svg>
