<?xml version="1.0" encoding="UTF-8" standalone="no"?>
<!-- Created with Inkscape (http://www.inkscape.org/) -->

<svg
   xmlns:ns0="http://www.iki.fi/pav/software/textext/"
   xmlns:dc="http://purl.org/dc/elements/1.1/"
   xmlns:cc="http://creativecommons.org/ns#"
   xmlns:rdf="http://www.w3.org/1999/02/22-rdf-syntax-ns#"
   xmlns:svg="http://www.w3.org/2000/svg"
   xmlns="http://www.w3.org/2000/svg"
   xmlns:xlink="http://www.w3.org/1999/xlink"
   xmlns:sodipodi="http://sodipodi.sourceforge.net/DTD/sodipodi-0.dtd"
   xmlns:inkscape="http://www.inkscape.org/namespaces/inkscape"
   sodipodi:docname="reflection.svg"
   inkscape:version="0.48.4 r9939"
   version="1.1"
   id="svg2"
   height="493.71957"
   width="573.88489">
  <sodipodi:namedview
     id="base"
     pagecolor="#ffffff"
     bordercolor="#666666"
     borderopacity="1.0"
     inkscape:pageopacity="0.0"
     inkscape:pageshadow="2"
     inkscape:zoom="0.7"
     inkscape:cx="-1.8019373"
     inkscape:cy="369.4884"
     inkscape:document-units="px"
     inkscape:current-layer="svg2"
     showgrid="false"
     inkscape:window-width="1280"
     inkscape:window-height="776"
     inkscape:window-x="0"
     inkscape:window-y="0"
     inkscape:window-maximized="1"
     fit-margin-top="10"
     fit-margin-left="10"
     fit-margin-right="10"
     fit-margin-bottom="10" />
  <defs
     id="defs4">
    <marker
       inkscape:stockid="Arrow2Lend"
       orient="auto"
       refY="0"
       refX="0"
       id="Arrow2Lend"
       style="overflow:visible">
      <path
         id="path4937"
         style="fill-rule:evenodd;stroke-width:0.625;stroke-linejoin:round"
         d="M 8.7185878,4.0337352 -2.2072895,0.01601326 8.7185884,-4.0017078 c -1.7454984,2.3720609 -1.7354408,5.6174519 -6e-7,8.035443 z"
         transform="matrix(-1.1,0,0,-1.1,-1.1,0)"
         inkscape:connector-curvature="0" />
    </marker>
    <marker
       style="overflow:visible"
       id="Arrow1Mend"
       refX="0"
       refY="0"
       orient="auto"
       inkscape:stockid="Arrow1Mend">
      <path
         transform="matrix(-0.4,0,0,-0.4,-4,0)"
         style="fill-rule:evenodd;stroke:#000000;stroke-width:1pt"
         d="M 0,0 5,-5 -12.5,0 5,5 0,0 z"
         id="path4925"
         inkscape:connector-curvature="0" />
    </marker>
    <marker
       style="overflow:visible"
       id="Arrow1Mstart"
       refX="0"
       refY="0"
       orient="auto"
       inkscape:stockid="Arrow1Mstart">
      <path
         transform="matrix(0.4,0,0,0.4,4,0)"
         style="fill-rule:evenodd;stroke:#000000;stroke-width:1pt"
         d="M 0,0 5,-5 -12.5,0 5,5 0,0 z"
         id="path4922"
         inkscape:connector-curvature="0" />
    </marker>
  </defs>
  <metadata
     id="metadata7">
    <rdf:RDF>
      <cc:Work
         rdf:about="">
        <dc:format>image/svg+xml</dc:format>
        <dc:type
           rdf:resource="http://purl.org/dc/dcmitype/StillImage" />
        <dc:title />
      </cc:Work>
    </rdf:RDF>
  </metadata>
  <g
     id="layer1"
     inkscape:groupmode="layer"
     inkscape:label="Layer 1"
     transform="translate(-62.409687,-69.627266)">
    <rect
       y="502.8392"
       x="105.05586"
       height="50.507626"
       width="521.23871"
       id="rect2985"
       style="fill:#cccccc;fill-opacity:1;stroke:none" />
    <path
       inkscape:connector-curvature="0"
       id="path2987"
       d="m 354.14513,504.8595 0,-337.39095"
       style="fill:none;stroke:#000000;stroke-width:1px;stroke-linecap:butt;stroke-linejoin:miter;stroke-opacity:1" />
    <path
       inkscape:connector-curvature="0"
       id="path2989"
       d="M 113.13709,112.92032 353.55339,504.8595 496.99505,284.64625"
       style="fill:none;stroke:#ff0000;stroke-width:1px;stroke-linecap:butt;stroke-linejoin:miter;stroke-opacity:1" />
    <path
       style="fill:none;stroke:#000000;stroke-width:1px;stroke-linecap:butt;stroke-linejoin:miter;stroke-opacity:1"
       d="m 311.12698,436.16913 c 5.66109,-14.27364 9.25484,-30.09779 44.44671,-22.22335 27.06565,-8.39385 39.84933,1.42607 45.45687,17.17259"
       id="path3102"
       inkscape:connector-curvature="0"
       sodipodi:nodetypes="ccc" />
    <g
       id="g3236"
       ns0:preamble=""
       ns0:text="${\\theta}_i$"
       transform="matrix(3.9088407,0,0,3.6399816,-558.91446,-95.226284)">
      <defs
         id="defs3238">
        <g
           id="g3240">
          <symbol
             id="textext-3d0f8b45-0"
             overflow="visible"
             style="overflow:visible">
            <path
               id="path3243"
               d=""
               style="stroke:none"
               inkscape:connector-curvature="0" />
          </symbol>
          <symbol
             id="textext-3d0f8b45-1"
             overflow="visible"
             style="overflow:visible">
            <path
               id="path3246"
               d="m 4.53125,-4.984375 c 0,-0.65625 -0.171875,-2.046875 -1.1875,-2.046875 -1.390625,0 -2.921875,2.8125 -2.921875,5.09375 0,0.9375 0.28125,2.046875 1.1875,2.046875 1.40625,0 2.921875,-2.859375 2.921875,-5.09375 z M 1.46875,-3.625 C 1.640625,-4.25 1.84375,-5.046875 2.25,-5.765625 2.515625,-6.25 2.875,-6.8125 3.328125,-6.8125 c 0.484375,0 0.546875,0.640625 0.546875,1.203125 0,0.5 -0.078125,1 -0.3125,1.984375 z m 2,0.328125 C 3.359375,-2.84375 3.15625,-2 2.765625,-1.28125 c -0.34375,0.6875 -0.71875,1.171875 -1.15625,1.171875 -0.328125,0 -0.53125,-0.296875 -0.53125,-1.21875 0,-0.421875 0.0625,-1 0.3125,-1.96875 z"
               style="stroke:none"
               inkscape:connector-curvature="0" />
          </symbol>
          <symbol
             id="textext-3d0f8b45-2"
             overflow="visible"
             style="overflow:visible">
            <path
               id="path3249"
               d=""
               style="stroke:none"
               inkscape:connector-curvature="0" />
          </symbol>
          <symbol
             id="textext-3d0f8b45-3"
             overflow="visible"
             style="overflow:visible">
            <path
               id="path3252"
               d="m 2.265625,-4.359375 c 0,-0.109375 -0.09375,-0.265625 -0.28125,-0.265625 -0.1875,0 -0.390625,0.1875 -0.390625,0.390625 0,0.109375 0.078125,0.265625 0.28125,0.265625 0.1875,0 0.390625,-0.203125 0.390625,-0.390625 z M 0.84375,-0.8125 c -0.03125,0.09375 -0.0625,0.171875 -0.0625,0.296875 0,0.328125 0.265625,0.578125 0.65625,0.578125 0.6875,0 1,-0.953125 1,-1.0625 0,-0.09375 -0.09375,-0.09375 -0.109375,-0.09375 -0.09375,0 -0.109375,0.046875 -0.140625,0.125 -0.15625,0.5625 -0.453125,0.84375 -0.734375,0.84375 -0.140625,0 -0.171875,-0.09375 -0.171875,-0.25 0,-0.15625 0.046875,-0.28125 0.109375,-0.4375 C 1.46875,-1 1.546875,-1.1875 1.609375,-1.375 1.671875,-1.546875 1.9375,-2.171875 1.953125,-2.265625 1.984375,-2.328125 2,-2.40625 2,-2.484375 2,-2.8125 1.71875,-3.078125 1.34375,-3.078125 0.640625,-3.078125 0.328125,-2.125 0.328125,-2 c 0,0.078125 0.09375,0.078125 0.125,0.078125 0.09375,0 0.09375,-0.03125 0.125,-0.109375 C 0.75,-2.625 1.0625,-2.875 1.3125,-2.875 c 0.109375,0 0.171875,0.046875 0.171875,0.234375 0,0.171875 -0.03125,0.265625 -0.203125,0.703125 z"
               style="stroke:none"
               inkscape:connector-curvature="0" />
          </symbol>
        </g>
      </defs>
      <g
         id="textext-3d0f8b45-4">
        <g
           id="g3255"
           style="fill:#000000;fill-opacity:1">
          <use
             id="use3257"
             y="134.765"
             x="223.43201"
             xlink:href="#textext-3d0f8b45-1"
             width="744.09448"
             height="1052.3622" />
        </g>
        <g
           id="g3259"
           style="fill:#000000;fill-opacity:1">
          <use
             id="use3261"
             y="136.259"
             x="228.10899"
             xlink:href="#textext-3d0f8b45-3"
             width="744.09448"
             height="1052.3622" />
        </g>
      </g>
    </g>
    <g
       transform="matrix(4.0071011,0,0,3.8752358,-520.79151,-127.2965)"
       ns0:text="${\\theta}_r$"
       ns0:preamble=""
       id="g3359">
      <defs
         id="defs3361">
        <g
           id="g3363">
          <symbol
             style="overflow:visible"
             overflow="visible"
             id="textext-2db41d35-0">
            <path
               inkscape:connector-curvature="0"
               style="stroke:none"
               d=""
               id="path3366" />
          </symbol>
          <symbol
             style="overflow:visible"
             overflow="visible"
             id="textext-2db41d35-1">
            <path
               inkscape:connector-curvature="0"
               style="stroke:none"
               d="m 4.53125,-4.984375 c 0,-0.65625 -0.171875,-2.046875 -1.1875,-2.046875 -1.390625,0 -2.921875,2.8125 -2.921875,5.09375 0,0.9375 0.28125,2.046875 1.1875,2.046875 1.40625,0 2.921875,-2.859375 2.921875,-5.09375 z M 1.46875,-3.625 C 1.640625,-4.25 1.84375,-5.046875 2.25,-5.765625 2.515625,-6.25 2.875,-6.8125 3.328125,-6.8125 c 0.484375,0 0.546875,0.640625 0.546875,1.203125 0,0.5 -0.078125,1 -0.3125,1.984375 z m 2,0.328125 C 3.359375,-2.84375 3.15625,-2 2.765625,-1.28125 c -0.34375,0.6875 -0.71875,1.171875 -1.15625,1.171875 -0.328125,0 -0.53125,-0.296875 -0.53125,-1.21875 0,-0.421875 0.0625,-1 0.3125,-1.96875 z"
               id="path3369" />
          </symbol>
          <symbol
             style="overflow:visible"
             overflow="visible"
             id="textext-2db41d35-2">
            <path
               inkscape:connector-curvature="0"
               style="stroke:none"
               d=""
               id="path3372" />
          </symbol>
          <symbol
             style="overflow:visible"
             overflow="visible"
             id="textext-2db41d35-3">
            <path
               inkscape:connector-curvature="0"
               style="stroke:none"
               d="m 1.640625,-1.40625 c 0,-0.046875 0.171875,-0.671875 0.171875,-0.703125 0.015625,-0.0625 0.21875,-0.40625 0.453125,-0.578125 0.0625,-0.046875 0.25,-0.1875 0.5625,-0.1875 0.0625,0 0.234375,0 0.375,0.09375 -0.21875,0.0625 -0.296875,0.265625 -0.296875,0.390625 0,0.140625 0.109375,0.25 0.265625,0.25 0.171875,0 0.390625,-0.125 0.390625,-0.421875 0,-0.359375 -0.375,-0.515625 -0.734375,-0.515625 -0.359375,0 -0.671875,0.15625 -0.984375,0.5 -0.125,-0.421875 -0.546875,-0.5 -0.71875,-0.5 -0.25,0 -0.421875,0.171875 -0.546875,0.359375 -0.15625,0.265625 -0.25,0.671875 -0.25,0.71875 0,0.078125 0.09375,0.078125 0.125,0.078125 0.09375,0 0.09375,-0.015625 0.140625,-0.203125 0.109375,-0.421875 0.25,-0.75 0.515625,-0.75 0.1875,0 0.234375,0.15625 0.234375,0.34375 0,0.125 -0.0625,0.390625 -0.125,0.578125 -0.046875,0.1875 -0.109375,0.46875 -0.140625,0.625 L 0.84375,-0.4375 C 0.828125,-0.34375 0.78125,-0.171875 0.78125,-0.15625 0.78125,0 0.90625,0.0625 1.015625,0.0625 1.125,0.0625 1.265625,0 1.3125,-0.125 1.328125,-0.171875 1.40625,-0.484375 1.453125,-0.65625 z"
               id="path3375" />
          </symbol>
        </g>
      </defs>
      <g
         id="textext-2db41d35-4">
        <g
           style="fill:#000000;fill-opacity:1"
           id="g3378">
          <use
             height="1052.3622"
             width="744.09448"
             xlink:href="#textext-2db41d35-1"
             x="223.43201"
             y="134.765"
             id="use3380" />
        </g>
        <g
           style="fill:#000000;fill-opacity:1"
           id="g3382">
          <use
             height="1052.3622"
             width="744.09448"
             xlink:href="#textext-2db41d35-3"
             x="228.10899"
             y="136.259"
             id="use3384" />
        </g>
      </g>
    </g>
    <g
       id="g3466"
       ns0:preamble=""
       ns0:text="A"
       transform="matrix(3.8511104,0,0,3.3605357,-775.99432,-349.259)">
      <defs
         id="defs3468">
        <g
           id="g3470">
          <symbol
             id="textext-b28a1873-0"
             overflow="visible"
             style="overflow:visible">
            <path
               id="path3473"
               d=""
               style="stroke:none"
               inkscape:connector-curvature="0" />
          </symbol>
          <symbol
             id="textext-b28a1873-1"
             overflow="visible"
             style="overflow:visible">
            <path
               id="path3476"
               d="m 3.96875,-6.9375 c -0.046875,-0.125 -0.078125,-0.203125 -0.234375,-0.203125 -0.15625,0 -0.1875,0.0625 -0.234375,0.203125 L 1.4375,-0.984375 C 1.25,-0.46875 0.859375,-0.3125 0.3125,-0.3125 l 0,0.3125 c 0.234375,-0.015625 0.671875,-0.03125 1.015625,-0.03125 0.3125,0 0.828125,0.015625 1.15625,0.03125 l 0,-0.3125 c -0.5,0 -0.75,-0.25 -0.75,-0.5 0,-0.03125 0.015625,-0.140625 0.015625,-0.15625 l 0.46875,-1.296875 2.453125,0 0.53125,1.515625 c 0.015625,0.046875 0.03125,0.109375 0.03125,0.140625 0,0.296875 -0.5625,0.296875 -0.828125,0.296875 l 0,0.3125 c 0.359375,-0.03125 1.0625,-0.03125 1.4375,-0.03125 0.421875,0 0.890625,0.015625 1.296875,0.03125 l 0,-0.3125 -0.171875,0 C 6.375,-0.3125 6.234375,-0.375 6.125,-0.703125 z m -0.53125,1.109375 1.125,3.25 -2.234375,0 z"
               style="stroke:none"
               inkscape:connector-curvature="0" />
          </symbol>
        </g>
      </defs>
      <g
         id="textext-b28a1873-2">
        <g
           id="g3479"
           style="fill:#000000;fill-opacity:1">
          <use
             id="use3481"
             y="134.765"
             x="223.43201"
             xlink:href="#textext-b28a1873-1"
             width="744.09448"
             height="1052.3622" />
        </g>
      </g>
    </g>
    <g
       transform="matrix(3.1888691,0,0,3.3873712,-220.5577,-176.86385)"
       ns0:text="B"
       ns0:preamble=""
       id="g3583">
      <defs
         id="defs3585">
        <g
           id="g3587">
          <symbol
             style="overflow:visible"
             overflow="visible"
             id="textext-fdcc0b61-0">
            <path
               inkscape:connector-curvature="0"
               style="stroke:none"
               d=""
               id="path3590" />
          </symbol>
          <symbol
             style="overflow:visible"
             overflow="visible"
             id="textext-fdcc0b61-1">
            <path
               inkscape:connector-curvature="0"
               style="stroke:none"
               d="m 2.21875,-3.65625 0,-2.4375 C 2.21875,-6.4375 2.234375,-6.5 2.703125,-6.5 l 1.234375,0 c 0.96875,0 1.3125,0.84375 1.3125,1.375 0,0.640625 -0.484375,1.46875 -1.59375,1.46875 z M 4.5625,-3.5625 C 5.53125,-3.75 6.21875,-4.390625 6.21875,-5.125 6.21875,-5.984375 5.296875,-6.8125 4,-6.8125 l -3.640625,0 0,0.3125 0.234375,0 c 0.765625,0 0.796875,0.109375 0.796875,0.46875 l 0,5.25 c 0,0.359375 -0.03125,0.46875 -0.796875,0.46875 l -0.234375,0 0,0.3125 3.90625,0 c 1.328125,0 2.21875,-0.890625 2.21875,-1.828125 0,-0.859375 -0.8125,-1.609375 -1.921875,-1.734375 z m -0.609375,3.25 -1.25,0 c -0.46875,0 -0.484375,-0.0625 -0.484375,-0.390625 l 0,-2.71875 1.875,0 C 5.078125,-3.421875 5.5,-2.5 5.5,-1.828125 5.5,-1.125 4.96875,-0.3125 3.953125,-0.3125 z"
               id="path3593" />
          </symbol>
        </g>
      </defs>
      <g
         id="textext-fdcc0b61-2">
        <g
           style="fill:#000000;fill-opacity:1"
           id="g3596">
          <use
             height="1052.3622"
             width="744.09448"
             xlink:href="#textext-fdcc0b61-1"
             x="223.43201"
             y="134.765"
             id="use3598" />
        </g>
      </g>
    </g>
    <path
       inkscape:connector-curvature="0"
       id="path4429"
       d="m 114.28571,115.21933 0,390"
       style="fill:none;stroke:#000000;stroke-width:1;stroke-linecap:butt;stroke-linejoin:miter;stroke-miterlimit:4;stroke-opacity:1;stroke-dasharray:8, 4;stroke-dashoffset:0;marker-mid:url(#Arrow2Lend)" />
    <path
       inkscape:connector-curvature="0"
       id="path4431"
       d="m 497.14285,285.21933 0,218.57143"
       style="fill:none;stroke:#000000;stroke-width:1;stroke-linecap:butt;stroke-linejoin:miter;stroke-miterlimit:4;stroke-opacity:1;stroke-dasharray:8, 4;stroke-dashoffset:0;marker-start:none" />
    <g
       id="g6601"
       ns0:preamble=""
       ns0:text="O"
       transform="matrix(2.7250674,0,0,2.5763547,-252.11991,172.93202)">
      <defs
         id="defs6603">
        <g
           id="g6605">
          <symbol
             id="textext-baf471f1-0"
             overflow="visible"
             style="overflow:visible">
            <path
               id="path6608"
               d=""
               style="stroke:none"
               inkscape:connector-curvature="0" />
          </symbol>
          <symbol
             id="textext-baf471f1-1"
             overflow="visible"
             style="overflow:visible">
            <path
               id="path6611"
               d="m 7.1875,-3.375 c 0,-2.03125 -1.5,-3.65625 -3.3125,-3.65625 -1.796875,0 -3.3125,1.59375 -3.3125,3.65625 0,2.046875 1.53125,3.59375 3.3125,3.59375 1.8125,0 3.3125,-1.578125 3.3125,-3.59375 z M 3.875,-0.046875 c -0.953125,0 -2.296875,-0.875 -2.296875,-3.46875 0,-2.578125 1.46875,-3.265625 2.296875,-3.265625 0.859375,0 2.28125,0.703125 2.28125,3.265625 0,2.640625 -1.359375,3.46875 -2.28125,3.46875 z"
               style="stroke:none"
               inkscape:connector-curvature="0" />
          </symbol>
        </g>
      </defs>
      <g
         id="textext-baf471f1-2">
        <g
           id="g6614"
           style="fill:#000000;fill-opacity:1">
          <use
             id="use6616"
             y="134.765"
             x="223.43201"
             xlink:href="#textext-baf471f1-1"
             width="744.09448"
             height="1052.3622" />
        </g>
      </g>
    </g>
  </g>
  <g
     id="g4647"
     ns0:preamble=""
     ns0:text="$a$"
     transform="matrix(4.7573385,0,0,3.8472565,-1054.8744,-269.3635)">
    <defs
       id="defs4649">
      <g
         id="g4651">
        <symbol
           id="textext-fe145bb3-0"
           overflow="visible"
           style="overflow:visible">
          <path
             id="path4654"
             d=""
             style="stroke:none"
             inkscape:connector-curvature="0" />
        </symbol>
        <symbol
           id="textext-fe145bb3-1"
           overflow="visible"
           style="overflow:visible">
          <path
             id="path4657"
             d="M 3.71875,-3.765625 C 3.53125,-4.140625 3.25,-4.40625 2.796875,-4.40625 c -1.15625,0 -2.390625,1.46875 -2.390625,2.921875 0,0.9375 0.546875,1.59375 1.3125,1.59375 0.203125,0 0.703125,-0.046875 1.296875,-0.75 0.078125,0.421875 0.4375,0.75 0.90625,0.75 0.359375,0 0.578125,-0.234375 0.75,-0.546875 0.15625,-0.359375 0.296875,-0.96875 0.296875,-0.984375 0,-0.109375 -0.09375,-0.109375 -0.125,-0.109375 -0.09375,0 -0.109375,0.046875 -0.140625,0.1875 -0.171875,0.640625 -0.34375,1.234375 -0.75,1.234375 -0.28125,0 -0.296875,-0.265625 -0.296875,-0.453125 0,-0.21875 0.015625,-0.3125 0.125,-0.75 C 3.890625,-1.71875 3.90625,-1.828125 4,-2.203125 L 4.359375,-3.59375 c 0.0625,-0.28125 0.0625,-0.296875 0.0625,-0.34375 0,-0.171875 -0.109375,-0.265625 -0.28125,-0.265625 -0.25,0 -0.390625,0.21875 -0.421875,0.4375 z M 3.078125,-1.1875 C 3.015625,-1 3.015625,-0.984375 2.875,-0.8125 2.4375,-0.265625 2.03125,-0.109375 1.75,-0.109375 c -0.5,0 -0.640625,-0.546875 -0.640625,-0.9375 0,-0.5 0.3125,-1.71875 0.546875,-2.1875 0.3125,-0.578125 0.75,-0.953125 1.15625,-0.953125 0.640625,0 0.78125,0.8125 0.78125,0.875 0,0.0625 -0.015625,0.125 -0.03125,0.171875 z"
             style="stroke:none"
             inkscape:connector-curvature="0" />
        </symbol>
      </g>
    </defs>
    <g
       id="textext-fe145bb3-2">
      <g
         id="g4660"
         style="fill:#000000;fill-opacity:1">
        <use
           id="use4662"
           y="134.765"
           x="223.43201"
           xlink:href="#textext-fe145bb3-1"
           width="744.09448"
           height="1052.3622" />
      </g>
    </g>
  </g>
  <g
     transform="matrix(4.5015197,0,0,3.6412698,-559.25975,-153.00975)"
     ns0:text="$b$"
     ns0:preamble=""
     id="g4808">
    <defs
       id="defs4810">
      <g
         id="g4812">
        <symbol
           style="overflow:visible"
           overflow="visible"
           id="textext-f471689d-0">
          <path
             inkscape:connector-curvature="0"
             style="stroke:none"
             d=""
             id="path4815" />
        </symbol>
        <symbol
           style="overflow:visible"
           overflow="visible"
           id="textext-f471689d-1">
          <path
             inkscape:connector-curvature="0"
             style="stroke:none"
             d="m 2.375,-6.8125 c 0,0 0,-0.109375 -0.125,-0.109375 -0.21875,0 -0.953125,0.078125 -1.21875,0.109375 -0.078125,0 -0.1875,0.015625 -0.1875,0.1875 0,0.125 0.09375,0.125 0.25,0.125 0.46875,0 0.484375,0.0625 0.484375,0.171875 0,0.0625 -0.078125,0.40625 -0.125,0.609375 l -0.828125,3.25 c -0.109375,0.5 -0.15625,0.671875 -0.15625,1.015625 0,0.9375 0.53125,1.5625 1.265625,1.5625 1.171875,0 2.40625,-1.484375 2.40625,-2.921875 0,-0.90625 -0.53125,-1.59375 -1.328125,-1.59375 -0.453125,0 -0.875,0.296875 -1.171875,0.59375 z M 1.453125,-3.046875 C 1.5,-3.265625 1.5,-3.28125 1.59375,-3.390625 2.078125,-4.03125 2.53125,-4.1875 2.796875,-4.1875 c 0.359375,0 0.625,0.296875 0.625,0.9375 0,0.59375 -0.328125,1.734375 -0.515625,2.109375 -0.328125,0.671875 -0.78125,1.03125 -1.171875,1.03125 -0.34375,0 -0.671875,-0.265625 -0.671875,-1 0,-0.203125 0,-0.390625 0.15625,-1.015625 z"
             id="path4818" />
        </symbol>
      </g>
    </defs>
    <g
       id="textext-f471689d-2">
      <g
         style="fill:#000000;fill-opacity:1"
         id="g4821">
        <use
           height="1052.3622"
           width="744.09448"
           xlink:href="#textext-f471689d-1"
           x="223.43201"
           y="134.765"
           id="use4823" />
      </g>
    </g>
  </g>
  <path
     inkscape:connector-curvature="0"
     id="path4910"
     d="m 51.868833,474.16349 380.014387,0"
     style="fill:none;stroke:#000000;stroke-width:0.99674386px;stroke-linecap:butt;stroke-linejoin:miter;stroke-opacity:1;marker-start:url(#Arrow1Mstart);marker-mid:none;marker-end:url(#Arrow1Mend)" />
  <path
     inkscape:connector-curvature="0"
     id="path5724"
     d="m 51.230083,438.09514 0,40.70813 -0.13668,0"
     style="fill:none;stroke:#000000;stroke-width:0.2918857px;stroke-linecap:butt;stroke-linejoin:miter;stroke-opacity:1" />
  <g
     id="g5816"
     ns0:preamble=""
     ns0:text="$l$"
     transform="matrix(6.338895,0,0,2.6253969,-1179.0539,118.2912)">
    <defs
       id="defs5818">
      <g
         id="g5820">
        <symbol
           id="textext-eb1b1f81-0"
           overflow="visible"
           style="overflow:visible">
          <path
             id="path5823"
             d=""
             style="stroke:none"
             inkscape:connector-curvature="0" />
        </symbol>
        <symbol
           id="textext-eb1b1f81-1"
           overflow="visible"
           style="overflow:visible">
          <path
             id="path5826"
             d="m 2.578125,-6.8125 c 0,0 0,-0.109375 -0.140625,-0.109375 -0.21875,0 -0.953125,0.078125 -1.21875,0.109375 -0.078125,0 -0.1875,0.015625 -0.1875,0.203125 0,0.109375 0.109375,0.109375 0.25,0.109375 0.484375,0 0.5,0.09375 0.5,0.171875 L 1.75,-6.125 0.484375,-1.140625 C 0.453125,-1.03125 0.4375,-0.96875 0.4375,-0.8125 c 0,0.578125 0.4375,0.921875 0.90625,0.921875 0.328125,0 0.578125,-0.203125 0.75,-0.5625 0.171875,-0.375 0.296875,-0.953125 0.296875,-0.96875 0,-0.109375 -0.09375,-0.109375 -0.125,-0.109375 -0.09375,0 -0.109375,0.046875 -0.125,0.1875 C 1.96875,-0.703125 1.78125,-0.109375 1.375,-0.109375 c -0.296875,0 -0.296875,-0.3125 -0.296875,-0.453125 0,-0.25 0.015625,-0.296875 0.0625,-0.484375 z"
             style="stroke:none"
             inkscape:connector-curvature="0" />
        </symbol>
      </g>
    </defs>
    <g
       id="textext-eb1b1f81-2">
      <g
         id="g5829"
         style="fill:#000000;fill-opacity:1">
        <use
           id="use5831"
           y="134.765"
           x="223.43201"
           xlink:href="#textext-eb1b1f81-1"
           width="744.09448"
           height="1052.3622" />
      </g>
    </g>
  </g>
  <path
     style="fill:none;stroke:#000000;stroke-width:0.97397804px;stroke-linecap:butt;stroke-linejoin:miter;stroke-opacity:1"
     d="m 434.74617,437.00762 0,38.59745 -1.45459,0"
     id="path5931"
     inkscape:connector-curvature="0" />
  <path
     style="fill:none;stroke:#000000;stroke-width:1px;stroke-linecap:butt;stroke-linejoin:miter;stroke-opacity:1"
     d="m 291.87602,434.16349 0,28.57143 0,0"
     id="path5933"
     inkscape:connector-curvature="0"
     sodipodi:nodetypes="ccc" />
  <path
     style="fill:none;stroke:#000000;stroke-width:1px;stroke-linecap:butt;stroke-linejoin:miter;stroke-opacity:1;marker-start:url(#Arrow1Mstart);marker-end:url(#Arrow1Mend)"
     d="m 50.447453,445.59206 239.999997,0"
     id="path5935"
     inkscape:connector-curvature="0" />
  <g
     transform="matrix(3.884182,0,0,3.8472565,-704.82737,-76.506354)"
     ns0:text="$x$"
     ns0:preamble=""
     id="g6407">
    <defs
       id="defs6409">
      <g
         id="g6411">
        <symbol
           style="overflow:visible"
           overflow="visible"
           id="textext-a9a45495-0">
          <path
             inkscape:connector-curvature="0"
             style="stroke:none"
             d=""
             id="path6414" />
        </symbol>
        <symbol
           style="overflow:visible"
           overflow="visible"
           id="textext-a9a45495-1">
          <path
             inkscape:connector-curvature="0"
             style="stroke:none"
             d="M 3.328125,-3.015625 C 3.390625,-3.265625 3.625,-4.1875 4.3125,-4.1875 c 0.046875,0 0.296875,0 0.5,0.125 C 4.53125,-4 4.34375,-3.765625 4.34375,-3.515625 c 0,0.15625 0.109375,0.34375 0.375,0.34375 0.21875,0 0.53125,-0.171875 0.53125,-0.578125 0,-0.515625 -0.578125,-0.65625 -0.921875,-0.65625 -0.578125,0 -0.921875,0.53125 -1.046875,0.75 -0.25,-0.65625 -0.78125,-0.75 -1.078125,-0.75 -1.03125,0 -1.609375,1.28125 -1.609375,1.53125 0,0.109375 0.109375,0.109375 0.125,0.109375 0.078125,0 0.109375,-0.03125 0.125,-0.109375 0.34375,-1.0625 1,-1.3125 1.34375,-1.3125 0.1875,0 0.53125,0.09375 0.53125,0.671875 0,0.3125 -0.171875,0.96875 -0.53125,2.375 -0.15625,0.609375 -0.515625,1.03125 -0.953125,1.03125 -0.0625,0 -0.28125,0 -0.5,-0.125 0.25,-0.0625 0.46875,-0.265625 0.46875,-0.546875 0,-0.265625 -0.21875,-0.34375 -0.359375,-0.34375 -0.3125,0 -0.546875,0.25 -0.546875,0.578125 0,0.453125 0.484375,0.65625 0.921875,0.65625 0.671875,0 1.03125,-0.703125 1.046875,-0.75 0.125,0.359375 0.484375,0.75 1.078125,0.75 1.03125,0 1.59375,-1.28125 1.59375,-1.53125 0,-0.109375 -0.078125,-0.109375 -0.109375,-0.109375 -0.09375,0 -0.109375,0.046875 -0.140625,0.109375 -0.328125,1.078125 -1,1.3125 -1.3125,1.3125 -0.390625,0 -0.546875,-0.3125 -0.546875,-0.65625 0,-0.21875 0.046875,-0.4375 0.15625,-0.875 z"
             id="path6417" />
        </symbol>
      </g>
    </defs>
    <g
       id="textext-a9a45495-2">
      <g
         style="fill:#000000;fill-opacity:1"
         id="g6420">
        <use
           height="1052.3622"
           width="744.09448"
           xlink:href="#textext-a9a45495-1"
           x="223.43201"
           y="134.765"
           id="use6422" />
      </g>
    </g>
  </g>
</svg>
