<?xml version="1.0" encoding="UTF-8" standalone="no"?>
<!-- Created with Inkscape (http://www.inkscape.org/) -->

<svg
   xmlns:ns0="http://www.iki.fi/pav/software/textext/"
   xmlns:dc="http://purl.org/dc/elements/1.1/"
   xmlns:cc="http://creativecommons.org/ns#"
   xmlns:rdf="http://www.w3.org/1999/02/22-rdf-syntax-ns#"
   xmlns:svg="http://www.w3.org/2000/svg"
   xmlns="http://www.w3.org/2000/svg"
   xmlns:xlink="http://www.w3.org/1999/xlink"
   xmlns:sodipodi="http://sodipodi.sourceforge.net/DTD/sodipodi-0.dtd"
   xmlns:inkscape="http://www.inkscape.org/namespaces/inkscape"
   width="574"
   height="494"
   id="svg7541"
   version="1.1"
   inkscape:version="0.48.4 r9939"
   sodipodi:docname="refraction.svg">
  <sodipodi:namedview
     id="base"
     pagecolor="#ffffff"
     bordercolor="#666666"
     borderopacity="1.0"
     inkscape:pageopacity="0.0"
     inkscape:pageshadow="2"
     inkscape:zoom="0.98994949"
     inkscape:cx="174.29088"
     inkscape:cy="333.35482"
     inkscape:document-units="px"
     inkscape:current-layer="svg7541"
     showgrid="false"
     inkscape:window-width="1280"
     inkscape:window-height="776"
     inkscape:window-x="0"
     inkscape:window-y="0"
     inkscape:window-maximized="1" />
  <defs
     id="defs7543">
    <marker
       style="overflow:visible;"
       id="Arrow1Mend"
       refX="0.0"
       refY="0.0"
       orient="auto"
       inkscape:stockid="Arrow1Mend">
      <path
         transform="scale(0.4) rotate(180) translate(10,0)"
         style="fill-rule:evenodd;stroke:#000000;stroke-width:1.0pt;"
         d="M 0.0,0.0 L 5.0,-5.0 L -12.5,0.0 L 5.0,5.0 L 0.0,0.0 z "
         id="path4925" />
    </marker>
    <marker
       style="overflow:visible"
       id="Arrow1Mstart"
       refX="0.0"
       refY="0.0"
       orient="auto"
       inkscape:stockid="Arrow1Mstart">
      <path
         transform="scale(0.4) translate(10,0)"
         style="fill-rule:evenodd;stroke:#000000;stroke-width:1.0pt"
         d="M 0.0,0.0 L 5.0,-5.0 L -12.5,0.0 L 5.0,5.0 L 0.0,0.0 z "
         id="path4922" />
    </marker>
  </defs>
  <metadata
     id="metadata7546">
    <rdf:RDF>
      <cc:Work
         rdf:about="">
        <dc:format>image/svg+xml</dc:format>
        <dc:type
           rdf:resource="http://purl.org/dc/dcmitype/StillImage" />
        <dc:title />
      </cc:Work>
    </rdf:RDF>
  </metadata>
  <g
     transform="translate(0,-558.36218)"
     id="layer1"
     inkscape:groupmode="layer"
     inkscape:label="Layer 1">
    <rect
       transform="translate(0,558.36218)"
       y="201.05576"
       x="48.487324"
       height="206.07112"
       width="471.74124"
       id="rect7553"
       style="color:#000000;fill:#999999;fill-opacity:1;fill-rule:nonzero;stroke:none;stroke-width:1px;marker:none;visibility:visible;display:inline;overflow:visible;enable-background:accumulate" />
    <path
       transform="translate(0,558.36218)"
       inkscape:connector-curvature="0"
       id="path8073"
       d="m 273.75134,22.258761 0,345.472169 1.01015,0"
       style="fill:none;stroke:#000000;stroke-width:1;stroke-linecap:butt;stroke-linejoin:miter;stroke-opacity:1;stroke-miterlimit:4;stroke-dasharray:6,2;stroke-dashoffset:0" />
    <path
       transform="translate(0,558.36218)"
       inkscape:connector-curvature="0"
       id="path8075"
       d="M 117.1777,32.360287 273.75134,201.05576 337.39095,345.50758"
       style="fill:none;stroke:#ff0000;stroke-width:1px;stroke-linecap:butt;stroke-linejoin:miter;stroke-opacity:1" />
    <path
       sodipodi:nodetypes="ccc"
       transform="translate(0,558.36218)"
       inkscape:connector-curvature="0"
       id="path8342"
       d="m 242.43661,165.70042 c 3.63326,-15.71897 11.60014,-24.21524 31.31473,-13.13198 l 0,0"
       style="fill:none;stroke:#000000;stroke-width:1px;stroke-linecap:butt;stroke-linejoin:miter;stroke-opacity:1" />
    <path
       sodipodi:nodetypes="ccc"
       inkscape:connector-curvature="0"
       id="path8344"
       d="m 274.78211,822.04083 c 9.24081,4.4241 17.87173,5.5031 24.20243,-6.03373 l 0,0"
       style="fill:none;stroke:#000000;stroke-width:1.04123414px;stroke-linecap:butt;stroke-linejoin:miter;stroke-opacity:1" />
    <path
       inkscape:connector-curvature="0"
       id="path8681"
       d="m 115.15739,589.75723 0,366.59554"
       style="fill:none;stroke:#000000;stroke-width:1.04394591;stroke-linecap:butt;stroke-linejoin:miter;stroke-miterlimit:4;stroke-opacity:1;stroke-dasharray:8.35156728, 4.17578364;stroke-dashoffset:0" />
    <path
       style="fill:none;stroke:#000000;stroke-width:1.09952545px;stroke-linecap:butt;stroke-linejoin:miter;stroke-opacity:1"
       d="m 272.79095,744.31541 16.06291,0 0,15.05277"
       id="path10315"
       inkscape:connector-curvature="0" />
  </g>
  <g
     id="g8248"
     ns0:preamble=""
     ns0:text="A"
     transform="matrix(1.8876398,0,0,1.7073279,-318.81267,-201.38906)">
    <defs
       id="defs8250">
      <g
         id="g8252">
        <symbol
           id="textext-b28a1873-0"
           overflow="visible"
           style="overflow:visible">
          <path
             id="path8255"
             d=""
             style="stroke:none"
             inkscape:connector-curvature="0" />
        </symbol>
        <symbol
           id="textext-b28a1873-1"
           overflow="visible"
           style="overflow:visible">
          <path
             id="path8258"
             d="m 3.96875,-6.9375 c -0.046875,-0.125 -0.078125,-0.203125 -0.234375,-0.203125 -0.15625,0 -0.1875,0.0625 -0.234375,0.203125 L 1.4375,-0.984375 C 1.25,-0.46875 0.859375,-0.3125 0.3125,-0.3125 l 0,0.3125 c 0.234375,-0.015625 0.671875,-0.03125 1.015625,-0.03125 0.3125,0 0.828125,0.015625 1.15625,0.03125 l 0,-0.3125 c -0.5,0 -0.75,-0.25 -0.75,-0.5 0,-0.03125 0.015625,-0.140625 0.015625,-0.15625 l 0.46875,-1.296875 2.453125,0 0.53125,1.515625 c 0.015625,0.046875 0.03125,0.109375 0.03125,0.140625 0,0.296875 -0.5625,0.296875 -0.828125,0.296875 l 0,0.3125 c 0.359375,-0.03125 1.0625,-0.03125 1.4375,-0.03125 0.421875,0 0.890625,0.015625 1.296875,0.03125 l 0,-0.3125 -0.171875,0 C 6.375,-0.3125 6.234375,-0.375 6.125,-0.703125 z m -0.53125,1.109375 1.125,3.25 -2.234375,0 z"
             style="stroke:none"
             inkscape:connector-curvature="0" />
        </symbol>
      </g>
    </defs>
    <g
       id="textext-b28a1873-2">
      <g
         id="g8261"
         style="fill:#000000;fill-opacity:1">
        <use
           id="use8263"
           y="134.765"
           x="223.43201"
           xlink:href="#textext-b28a1873-1"
           width="574"
           height="494" />
      </g>
    </g>
  </g>
  <g
     transform="matrix(1.8246144,0,0,1.7413963,-72.414641,104.13653)"
     ns0:text="B"
     ns0:preamble=""
     id="g8299">
    <defs
       id="defs8301">
      <g
         id="g8303">
        <symbol
           style="overflow:visible"
           overflow="visible"
           id="textext-fdcc0b61-0">
          <path
             inkscape:connector-curvature="0"
             style="stroke:none"
             d=""
             id="path8306" />
        </symbol>
        <symbol
           style="overflow:visible"
           overflow="visible"
           id="textext-fdcc0b61-1">
          <path
             inkscape:connector-curvature="0"
             style="stroke:none"
             d="m 2.21875,-3.65625 0,-2.4375 C 2.21875,-6.4375 2.234375,-6.5 2.703125,-6.5 l 1.234375,0 c 0.96875,0 1.3125,0.84375 1.3125,1.375 0,0.640625 -0.484375,1.46875 -1.59375,1.46875 z M 4.5625,-3.5625 C 5.53125,-3.75 6.21875,-4.390625 6.21875,-5.125 6.21875,-5.984375 5.296875,-6.8125 4,-6.8125 l -3.640625,0 0,0.3125 0.234375,0 c 0.765625,0 0.796875,0.109375 0.796875,0.46875 l 0,5.25 c 0,0.359375 -0.03125,0.46875 -0.796875,0.46875 l -0.234375,0 0,0.3125 3.90625,0 c 1.328125,0 2.21875,-0.890625 2.21875,-1.828125 0,-0.859375 -0.8125,-1.609375 -1.921875,-1.734375 z m -0.609375,3.25 -1.25,0 c -0.46875,0 -0.484375,-0.0625 -0.484375,-0.390625 l 0,-2.71875 1.875,0 C 5.078125,-3.421875 5.5,-2.5 5.5,-1.828125 5.5,-1.125 4.96875,-0.3125 3.953125,-0.3125 z"
             id="path8309" />
        </symbol>
      </g>
    </defs>
    <g
       id="textext-fdcc0b61-2">
      <g
         style="fill:#000000;fill-opacity:1"
         id="g8312">
        <use
           height="494"
           width="574"
           xlink:href="#textext-fdcc0b61-1"
           x="223.43201"
           y="134.765"
           id="use8314" />
      </g>
    </g>
  </g>
  <g
     id="g8477"
     ns0:preamble=""
     ns0:text="${\\theta}_i$"
     transform="matrix(2.3584193,0,0,2.0586439,-287.92499,-137.24487)">
    <defs
       id="defs8479">
      <g
         id="g8481">
        <symbol
           id="textext-3d0f8b45-0"
           overflow="visible"
           style="overflow:visible">
          <path
             id="path8484"
             d=""
             style="stroke:none"
             inkscape:connector-curvature="0" />
        </symbol>
        <symbol
           id="textext-3d0f8b45-1"
           overflow="visible"
           style="overflow:visible">
          <path
             id="path8487"
             d="m 4.53125,-4.984375 c 0,-0.65625 -0.171875,-2.046875 -1.1875,-2.046875 -1.390625,0 -2.921875,2.8125 -2.921875,5.09375 0,0.9375 0.28125,2.046875 1.1875,2.046875 1.40625,0 2.921875,-2.859375 2.921875,-5.09375 z M 1.46875,-3.625 C 1.640625,-4.25 1.84375,-5.046875 2.25,-5.765625 2.515625,-6.25 2.875,-6.8125 3.328125,-6.8125 c 0.484375,0 0.546875,0.640625 0.546875,1.203125 0,0.5 -0.078125,1 -0.3125,1.984375 z m 2,0.328125 C 3.359375,-2.84375 3.15625,-2 2.765625,-1.28125 c -0.34375,0.6875 -0.71875,1.171875 -1.15625,1.171875 -0.328125,0 -0.53125,-0.296875 -0.53125,-1.21875 0,-0.421875 0.0625,-1 0.3125,-1.96875 z"
             style="stroke:none"
             inkscape:connector-curvature="0" />
        </symbol>
        <symbol
           id="textext-3d0f8b45-2"
           overflow="visible"
           style="overflow:visible">
          <path
             id="path8490"
             d=""
             style="stroke:none"
             inkscape:connector-curvature="0" />
        </symbol>
        <symbol
           id="textext-3d0f8b45-3"
           overflow="visible"
           style="overflow:visible">
          <path
             id="path8493"
             d="m 2.265625,-4.359375 c 0,-0.109375 -0.09375,-0.265625 -0.28125,-0.265625 -0.1875,0 -0.390625,0.1875 -0.390625,0.390625 0,0.109375 0.078125,0.265625 0.28125,0.265625 0.1875,0 0.390625,-0.203125 0.390625,-0.390625 z M 0.84375,-0.8125 c -0.03125,0.09375 -0.0625,0.171875 -0.0625,0.296875 0,0.328125 0.265625,0.578125 0.65625,0.578125 0.6875,0 1,-0.953125 1,-1.0625 0,-0.09375 -0.09375,-0.09375 -0.109375,-0.09375 -0.09375,0 -0.109375,0.046875 -0.140625,0.125 -0.15625,0.5625 -0.453125,0.84375 -0.734375,0.84375 -0.140625,0 -0.171875,-0.09375 -0.171875,-0.25 0,-0.15625 0.046875,-0.28125 0.109375,-0.4375 C 1.46875,-1 1.546875,-1.1875 1.609375,-1.375 1.671875,-1.546875 1.9375,-2.171875 1.953125,-2.265625 1.984375,-2.328125 2,-2.40625 2,-2.484375 2,-2.8125 1.71875,-3.078125 1.34375,-3.078125 0.640625,-3.078125 0.328125,-2.125 0.328125,-2 c 0,0.078125 0.09375,0.078125 0.125,0.078125 0.09375,0 0.09375,-0.03125 0.125,-0.109375 C 0.75,-2.625 1.0625,-2.875 1.3125,-2.875 c 0.109375,0 0.171875,0.046875 0.171875,0.234375 0,0.171875 -0.03125,0.265625 -0.203125,0.703125 z"
             style="stroke:none"
             inkscape:connector-curvature="0" />
        </symbol>
      </g>
    </defs>
    <g
       id="textext-3d0f8b45-4">
      <g
         id="g8496"
         style="fill:#000000;fill-opacity:1">
        <use
           id="use8498"
           y="134.765"
           x="223.43201"
           xlink:href="#textext-3d0f8b45-1"
           width="574"
           height="494" />
      </g>
      <g
         id="g8500"
         style="fill:#000000;fill-opacity:1">
        <use
           id="use8502"
           y="136.259"
           x="228.10899"
           xlink:href="#textext-3d0f8b45-3"
           width="574"
           height="494" />
      </g>
    </g>
  </g>
  <g
     transform="matrix(2.1629348,0,0,2.0586439,-201.73863,8.217104)"
     ns0:text="${\\theta}_r$"
     ns0:preamble=""
     id="g8594">
    <defs
       id="defs8596">
      <g
         id="g8598">
        <symbol
           style="overflow:visible"
           overflow="visible"
           id="textext-2db41d35-0">
          <path
             inkscape:connector-curvature="0"
             style="stroke:none"
             d=""
             id="path8601" />
        </symbol>
        <symbol
           style="overflow:visible"
           overflow="visible"
           id="textext-2db41d35-1">
          <path
             inkscape:connector-curvature="0"
             style="stroke:none"
             d="m 4.53125,-4.984375 c 0,-0.65625 -0.171875,-2.046875 -1.1875,-2.046875 -1.390625,0 -2.921875,2.8125 -2.921875,5.09375 0,0.9375 0.28125,2.046875 1.1875,2.046875 1.40625,0 2.921875,-2.859375 2.921875,-5.09375 z M 1.46875,-3.625 C 1.640625,-4.25 1.84375,-5.046875 2.25,-5.765625 2.515625,-6.25 2.875,-6.8125 3.328125,-6.8125 c 0.484375,0 0.546875,0.640625 0.546875,1.203125 0,0.5 -0.078125,1 -0.3125,1.984375 z m 2,0.328125 C 3.359375,-2.84375 3.15625,-2 2.765625,-1.28125 c -0.34375,0.6875 -0.71875,1.171875 -1.15625,1.171875 -0.328125,0 -0.53125,-0.296875 -0.53125,-1.21875 0,-0.421875 0.0625,-1 0.3125,-1.96875 z"
             id="path8604" />
        </symbol>
        <symbol
           style="overflow:visible"
           overflow="visible"
           id="textext-2db41d35-2">
          <path
             inkscape:connector-curvature="0"
             style="stroke:none"
             d=""
             id="path8607" />
        </symbol>
        <symbol
           style="overflow:visible"
           overflow="visible"
           id="textext-2db41d35-3">
          <path
             inkscape:connector-curvature="0"
             style="stroke:none"
             d="m 1.640625,-1.40625 c 0,-0.046875 0.171875,-0.671875 0.171875,-0.703125 0.015625,-0.0625 0.21875,-0.40625 0.453125,-0.578125 0.0625,-0.046875 0.25,-0.1875 0.5625,-0.1875 0.0625,0 0.234375,0 0.375,0.09375 -0.21875,0.0625 -0.296875,0.265625 -0.296875,0.390625 0,0.140625 0.109375,0.25 0.265625,0.25 0.171875,0 0.390625,-0.125 0.390625,-0.421875 0,-0.359375 -0.375,-0.515625 -0.734375,-0.515625 -0.359375,0 -0.671875,0.15625 -0.984375,0.5 -0.125,-0.421875 -0.546875,-0.5 -0.71875,-0.5 -0.25,0 -0.421875,0.171875 -0.546875,0.359375 -0.15625,0.265625 -0.25,0.671875 -0.25,0.71875 0,0.078125 0.09375,0.078125 0.125,0.078125 0.09375,0 0.09375,-0.015625 0.140625,-0.203125 0.109375,-0.421875 0.25,-0.75 0.515625,-0.75 0.1875,0 0.234375,0.15625 0.234375,0.34375 0,0.125 -0.0625,0.390625 -0.125,0.578125 -0.046875,0.1875 -0.109375,0.46875 -0.140625,0.625 L 0.84375,-0.4375 C 0.828125,-0.34375 0.78125,-0.171875 0.78125,-0.15625 0.78125,0 0.90625,0.0625 1.015625,0.0625 1.125,0.0625 1.265625,0 1.3125,-0.125 1.328125,-0.171875 1.40625,-0.484375 1.453125,-0.65625 z"
             id="path8610" />
        </symbol>
      </g>
    </defs>
    <g
       id="textext-2db41d35-4">
      <g
         style="fill:#000000;fill-opacity:1"
         id="g8613">
        <use
           height="494"
           width="574"
           xlink:href="#textext-2db41d35-1"
           x="223.43201"
           y="134.765"
           id="use8615" />
      </g>
      <g
         style="fill:#000000;fill-opacity:1"
         id="g8617">
        <use
           height="494"
           width="574"
           xlink:href="#textext-2db41d35-3"
           x="228.10899"
           y="136.259"
           id="use8619" />
      </g>
    </g>
  </g>
  <path
     inkscape:connector-curvature="0"
     id="path8685"
     d="m 114.14724,348.53803 158.59395,0"
     style="fill:none;stroke:#000000;stroke-width:1px;stroke-linecap:butt;stroke-linejoin:miter;stroke-opacity:1;marker-start:url(#Arrow1Mstart);marker-mid:none;marker-end:url(#Arrow1Mend)" />
  <path
     inkscape:connector-curvature="0"
     id="path9239"
     d="m 336.3808,345.50758 0,53.53808"
     style="fill:none;stroke:#000000;stroke-width:1;stroke-linecap:butt;stroke-linejoin:miter;stroke-opacity:1;stroke-miterlimit:4;stroke-dasharray:8,4;stroke-dashoffset:0" />
  <path
     inkscape:connector-curvature="0"
     id="path9245"
     d="m 115.15739,385.91368 219.2031,0"
     style="fill:none;stroke:#000000;stroke-width:1px;stroke-linecap:butt;stroke-linejoin:miter;stroke-opacity:1;marker-start:url(#Arrow1Mstart);marker-end:url(#Arrow1Mend)" />
  <g
     ns0:text="$d$"
     ns0:preamble=""
     transform="matrix(2.6409629,0,0,1.8311758,-369.17442,135.38307)"
     id="g9850">
    <defs
       id="defs9852">
      <g
         id="g9854">
        <symbol
           style="overflow:visible"
           overflow="visible"
           id="textext-72f9cd52-0">
          <path
             inkscape:connector-curvature="0"
             style="stroke:none"
             d=""
             id="path9857" />
        </symbol>
        <symbol
           style="overflow:visible"
           overflow="visible"
           id="textext-72f9cd52-1">
          <path
             inkscape:connector-curvature="0"
             style="stroke:none"
             d="m 5.140625,-6.8125 c 0,0 0,-0.109375 -0.125,-0.109375 -0.15625,0 -1.09375,0.09375 -1.265625,0.109375 -0.078125,0.015625 -0.140625,0.0625 -0.140625,0.1875 0,0.125 0.09375,0.125 0.234375,0.125 0.484375,0 0.5,0.0625 0.5,0.171875 L 4.3125,-6.125 3.71875,-3.765625 C 3.53125,-4.140625 3.25,-4.40625 2.796875,-4.40625 c -1.15625,0 -2.390625,1.46875 -2.390625,2.921875 0,0.9375 0.546875,1.59375 1.3125,1.59375 0.203125,0 0.703125,-0.046875 1.296875,-0.75 0.078125,0.421875 0.4375,0.75 0.90625,0.75 0.359375,0 0.578125,-0.234375 0.75,-0.546875 0.15625,-0.359375 0.296875,-0.96875 0.296875,-0.984375 0,-0.109375 -0.09375,-0.109375 -0.125,-0.109375 -0.09375,0 -0.109375,0.046875 -0.140625,0.1875 -0.171875,0.640625 -0.34375,1.234375 -0.75,1.234375 -0.28125,0 -0.296875,-0.265625 -0.296875,-0.453125 0,-0.25 0.015625,-0.3125 0.046875,-0.484375 z m -2.0625,5.625 C 3.015625,-1 3.015625,-0.984375 2.875,-0.8125 2.4375,-0.265625 2.03125,-0.109375 1.75,-0.109375 c -0.5,0 -0.640625,-0.546875 -0.640625,-0.9375 0,-0.5 0.3125,-1.71875 0.546875,-2.1875 0.3125,-0.578125 0.75,-0.953125 1.15625,-0.953125 0.640625,0 0.78125,0.8125 0.78125,0.875 0,0.0625 -0.015625,0.125 -0.03125,0.171875 z"
             id="path9860" />
        </symbol>
      </g>
    </defs>
    <g
       id="textext-72f9cd52-2">
      <g
         style="fill:#000000;fill-opacity:1"
         id="g9863">
        <use
           height="494"
           width="574"
           xlink:href="#textext-72f9cd52-1"
           x="223.43201"
           y="134.765"
           id="use9865" />
      </g>
    </g>
  </g>
  <g
     id="g10210"
     ns0:preamble=""
     ns0:text="$x$"
     transform="matrix(2.6315398,0,0,2.118508,-395.32714,58.243514)">
    <defs
       id="defs10212">
      <g
         id="g10214">
        <symbol
           id="textext-a9a45495-0"
           overflow="visible"
           style="overflow:visible">
          <path
             id="path10217"
             d=""
             style="stroke:none"
             inkscape:connector-curvature="0" />
        </symbol>
        <symbol
           id="textext-a9a45495-1"
           overflow="visible"
           style="overflow:visible">
          <path
             id="path10220"
             d="M 3.328125,-3.015625 C 3.390625,-3.265625 3.625,-4.1875 4.3125,-4.1875 c 0.046875,0 0.296875,0 0.5,0.125 C 4.53125,-4 4.34375,-3.765625 4.34375,-3.515625 c 0,0.15625 0.109375,0.34375 0.375,0.34375 0.21875,0 0.53125,-0.171875 0.53125,-0.578125 0,-0.515625 -0.578125,-0.65625 -0.921875,-0.65625 -0.578125,0 -0.921875,0.53125 -1.046875,0.75 -0.25,-0.65625 -0.78125,-0.75 -1.078125,-0.75 -1.03125,0 -1.609375,1.28125 -1.609375,1.53125 0,0.109375 0.109375,0.109375 0.125,0.109375 0.078125,0 0.109375,-0.03125 0.125,-0.109375 0.34375,-1.0625 1,-1.3125 1.34375,-1.3125 0.1875,0 0.53125,0.09375 0.53125,0.671875 0,0.3125 -0.171875,0.96875 -0.53125,2.375 -0.15625,0.609375 -0.515625,1.03125 -0.953125,1.03125 -0.0625,0 -0.28125,0 -0.5,-0.125 0.25,-0.0625 0.46875,-0.265625 0.46875,-0.546875 0,-0.265625 -0.21875,-0.34375 -0.359375,-0.34375 -0.3125,0 -0.546875,0.25 -0.546875,0.578125 0,0.453125 0.484375,0.65625 0.921875,0.65625 0.671875,0 1.03125,-0.703125 1.046875,-0.75 0.125,0.359375 0.484375,0.75 1.078125,0.75 1.03125,0 1.59375,-1.28125 1.59375,-1.53125 0,-0.109375 -0.078125,-0.109375 -0.109375,-0.109375 -0.09375,0 -0.109375,0.046875 -0.140625,0.109375 -0.328125,1.078125 -1,1.3125 -1.3125,1.3125 -0.390625,0 -0.546875,-0.3125 -0.546875,-0.65625 0,-0.21875 0.046875,-0.4375 0.15625,-0.875 z"
             style="stroke:none"
             inkscape:connector-curvature="0" />
        </symbol>
      </g>
    </defs>
    <g
       id="textext-a9a45495-2">
      <g
         id="g10223"
         style="fill:#000000;fill-opacity:1">
        <use
           id="use10225"
           y="134.765"
           x="223.43201"
           xlink:href="#textext-a9a45495-1"
           width="574"
           height="494" />
      </g>
    </g>
  </g>
  <g
     transform="matrix(1.8999136,0,0,2.5408445,3.7243045,-244.29912)"
     ns0:text="$n_1$"
     ns0:preamble=""
     id="g10427">
    <defs
       id="defs10429">
      <g
         id="g10431">
        <symbol
           style="overflow:visible"
           overflow="visible"
           id="textext-b6b38cfc-0">
          <path
             inkscape:connector-curvature="0"
             style="stroke:none"
             d=""
             id="path10434" />
        </symbol>
        <symbol
           style="overflow:visible"
           overflow="visible"
           id="textext-b6b38cfc-1">
          <path
             inkscape:connector-curvature="0"
             style="stroke:none"
             d="m 0.875,-0.59375 c -0.03125,0.15625 -0.09375,0.390625 -0.09375,0.4375 0,0.171875 0.140625,0.265625 0.296875,0.265625 0.125,0 0.296875,-0.078125 0.375,-0.28125 0,-0.015625 0.125,-0.484375 0.1875,-0.734375 l 0.21875,-0.890625 C 1.90625,-2.03125 1.96875,-2.25 2.03125,-2.46875 c 0.03125,-0.171875 0.109375,-0.46875 0.125,-0.5 0.140625,-0.3125 0.671875,-1.21875 1.625,-1.21875 0.453125,0 0.53125,0.375 0.53125,0.703125 0,0.609375 -0.484375,1.890625 -0.640625,2.3125 C 3.578125,-0.9375 3.5625,-0.8125 3.5625,-0.703125 c 0,0.46875 0.359375,0.8125 0.828125,0.8125 0.9375,0 1.296875,-1.453125 1.296875,-1.53125 0,-0.109375 -0.078125,-0.109375 -0.109375,-0.109375 -0.109375,0 -0.109375,0.03125 -0.15625,0.1875 -0.203125,0.671875 -0.53125,1.234375 -1.015625,1.234375 -0.171875,0 -0.234375,-0.09375 -0.234375,-0.328125 0,-0.25 0.078125,-0.484375 0.171875,-0.703125 0.1875,-0.53125 0.609375,-1.625 0.609375,-2.203125 0,-0.65625 -0.421875,-1.0625 -1.140625,-1.0625 -0.90625,0 -1.390625,0.640625 -1.5625,0.875 -0.046875,-0.5625 -0.453125,-0.875 -0.921875,-0.875 -0.453125,0 -0.640625,0.390625 -0.734375,0.5625 C 0.421875,-3.5 0.296875,-2.90625 0.296875,-2.875 c 0,0.109375 0.09375,0.109375 0.109375,0.109375 0.109375,0 0.109375,-0.015625 0.171875,-0.234375 0.171875,-0.703125 0.375,-1.1875 0.734375,-1.1875 0.1875,0 0.296875,0.125 0.296875,0.453125 0,0.21875 -0.03125,0.328125 -0.15625,0.84375 z"
             id="path10437" />
        </symbol>
        <symbol
           style="overflow:visible"
           overflow="visible"
           id="textext-b6b38cfc-2">
          <path
             inkscape:connector-curvature="0"
             style="stroke:none"
             d=""
             id="path10440" />
        </symbol>
        <symbol
           style="overflow:visible"
           overflow="visible"
           id="textext-b6b38cfc-3">
          <path
             inkscape:connector-curvature="0"
             style="stroke:none"
             d="m 2.328125,-4.4375 c 0,-0.1875 0,-0.1875 -0.203125,-0.1875 -0.453125,0.4375 -1.078125,0.4375 -1.359375,0.4375 l 0,0.25 c 0.15625,0 0.625,0 1,-0.1875 l 0,3.546875 c 0,0.234375 0,0.328125 -0.6875,0.328125 l -0.265625,0 0,0.25 c 0.125,0 0.984375,-0.03125 1.234375,-0.03125 0.21875,0 1.09375,0.03125 1.25,0.03125 l 0,-0.25 -0.265625,0 c -0.703125,0 -0.703125,-0.09375 -0.703125,-0.328125 z"
             id="path10443" />
        </symbol>
      </g>
    </defs>
    <g
       id="textext-b6b38cfc-4">
      <g
         style="fill:#000000;fill-opacity:1"
         id="g10446">
        <use
           height="494"
           width="574"
           xlink:href="#textext-b6b38cfc-1"
           x="223.43201"
           y="134.765"
           id="use10448" />
      </g>
      <g
         style="fill:#000000;fill-opacity:1"
         id="g10450">
        <use
           height="494"
           width="574"
           xlink:href="#textext-b6b38cfc-3"
           x="229.412"
           y="136.259"
           id="use10452" />
      </g>
    </g>
  </g>
  <g
     id="g10729"
     transform="matrix(1.8999136,0,0,2.5408445,7.8405085,-27.55474)"
     ns0:preamble=""
     ns0:text="$n_2$">
    <defs
       id="defs10731">
      <g
         id="g10733">
        <symbol
           id="textext-370ced2c-0"
           overflow="visible"
           style="overflow:visible">
          <path
             id="path10736"
             d=""
             style="stroke:none"
             inkscape:connector-curvature="0" />
        </symbol>
        <symbol
           id="textext-370ced2c-1"
           overflow="visible"
           style="overflow:visible">
          <path
             id="path10739"
             d="m 0.875,-0.59375 c -0.03125,0.15625 -0.09375,0.390625 -0.09375,0.4375 0,0.171875 0.140625,0.265625 0.296875,0.265625 0.125,0 0.296875,-0.078125 0.375,-0.28125 0,-0.015625 0.125,-0.484375 0.1875,-0.734375 l 0.21875,-0.890625 C 1.90625,-2.03125 1.96875,-2.25 2.03125,-2.46875 c 0.03125,-0.171875 0.109375,-0.46875 0.125,-0.5 0.140625,-0.3125 0.671875,-1.21875 1.625,-1.21875 0.453125,0 0.53125,0.375 0.53125,0.703125 0,0.609375 -0.484375,1.890625 -0.640625,2.3125 C 3.578125,-0.9375 3.5625,-0.8125 3.5625,-0.703125 c 0,0.46875 0.359375,0.8125 0.828125,0.8125 0.9375,0 1.296875,-1.453125 1.296875,-1.53125 0,-0.109375 -0.078125,-0.109375 -0.109375,-0.109375 -0.109375,0 -0.109375,0.03125 -0.15625,0.1875 -0.203125,0.671875 -0.53125,1.234375 -1.015625,1.234375 -0.171875,0 -0.234375,-0.09375 -0.234375,-0.328125 0,-0.25 0.078125,-0.484375 0.171875,-0.703125 0.1875,-0.53125 0.609375,-1.625 0.609375,-2.203125 0,-0.65625 -0.421875,-1.0625 -1.140625,-1.0625 -0.90625,0 -1.390625,0.640625 -1.5625,0.875 -0.046875,-0.5625 -0.453125,-0.875 -0.921875,-0.875 -0.453125,0 -0.640625,0.390625 -0.734375,0.5625 C 0.421875,-3.5 0.296875,-2.90625 0.296875,-2.875 c 0,0.109375 0.09375,0.109375 0.109375,0.109375 0.109375,0 0.109375,-0.015625 0.171875,-0.234375 0.171875,-0.703125 0.375,-1.1875 0.734375,-1.1875 0.1875,0 0.296875,0.125 0.296875,0.453125 0,0.21875 -0.03125,0.328125 -0.15625,0.84375 z"
             style="stroke:none"
             inkscape:connector-curvature="0" />
        </symbol>
        <symbol
           id="textext-370ced2c-2"
           overflow="visible"
           style="overflow:visible">
          <path
             id="path10742"
             d=""
             style="stroke:none"
             inkscape:connector-curvature="0" />
        </symbol>
        <symbol
           id="textext-370ced2c-3"
           overflow="visible"
           style="overflow:visible">
          <path
             id="path10745"
             d="m 3.515625,-1.265625 -0.234375,0 c -0.015625,0.15625 -0.09375,0.5625 -0.1875,0.625 -0.046875,0.046875 -0.578125,0.046875 -0.6875,0.046875 l -1.28125,0 c 0.734375,-0.640625 0.984375,-0.84375 1.390625,-1.171875 0.515625,-0.40625 1,-0.84375 1,-1.5 0,-0.84375 -0.734375,-1.359375 -1.625,-1.359375 -0.859375,0 -1.453125,0.609375 -1.453125,1.25 0,0.34375 0.296875,0.390625 0.375,0.390625 0.15625,0 0.359375,-0.125 0.359375,-0.375 0,-0.125 -0.046875,-0.375 -0.40625,-0.375 C 0.984375,-4.21875 1.453125,-4.375 1.78125,-4.375 c 0.703125,0 1.0625,0.546875 1.0625,1.109375 0,0.609375 -0.4375,1.078125 -0.65625,1.328125 L 0.515625,-0.265625 C 0.4375,-0.203125 0.4375,-0.1875 0.4375,0 l 2.875,0 z"
             style="stroke:none"
             inkscape:connector-curvature="0" />
        </symbol>
      </g>
    </defs>
    <g
       id="textext-370ced2c-4">
      <g
         id="g10748"
         style="fill:#000000;fill-opacity:1">
        <use
           id="use10750"
           y="134.765"
           x="223.43201"
           xlink:href="#textext-370ced2c-1"
           width="574"
           height="494" />
      </g>
      <g
         id="g10752"
         style="fill:#000000;fill-opacity:1">
        <use
           id="use10754"
           y="136.259"
           x="229.412"
           xlink:href="#textext-370ced2c-3"
           width="574"
           height="494" />
      </g>
    </g>
  </g>
  <g
     transform="matrix(2.5498231,0,0,2.118508,-491.36152,-170.05098)"
     ns0:text="$a$"
     ns0:preamble=""
     id="g11019">
    <defs
       id="defs11021">
      <g
         id="g11023">
        <symbol
           style="overflow:visible"
           overflow="visible"
           id="textext-fe145bb3-0">
          <path
             inkscape:connector-curvature="0"
             style="stroke:none"
             d=""
             id="path11026" />
        </symbol>
        <symbol
           style="overflow:visible"
           overflow="visible"
           id="textext-fe145bb3-1">
          <path
             inkscape:connector-curvature="0"
             style="stroke:none"
             d="M 3.71875,-3.765625 C 3.53125,-4.140625 3.25,-4.40625 2.796875,-4.40625 c -1.15625,0 -2.390625,1.46875 -2.390625,2.921875 0,0.9375 0.546875,1.59375 1.3125,1.59375 0.203125,0 0.703125,-0.046875 1.296875,-0.75 0.078125,0.421875 0.4375,0.75 0.90625,0.75 0.359375,0 0.578125,-0.234375 0.75,-0.546875 0.15625,-0.359375 0.296875,-0.96875 0.296875,-0.984375 0,-0.109375 -0.09375,-0.109375 -0.125,-0.109375 -0.09375,0 -0.109375,0.046875 -0.140625,0.1875 -0.171875,0.640625 -0.34375,1.234375 -0.75,1.234375 -0.28125,0 -0.296875,-0.265625 -0.296875,-0.453125 0,-0.21875 0.015625,-0.3125 0.125,-0.75 C 3.890625,-1.71875 3.90625,-1.828125 4,-2.203125 L 4.359375,-3.59375 c 0.0625,-0.28125 0.0625,-0.296875 0.0625,-0.34375 0,-0.171875 -0.109375,-0.265625 -0.28125,-0.265625 -0.25,0 -0.390625,0.21875 -0.421875,0.4375 z M 3.078125,-1.1875 C 3.015625,-1 3.015625,-0.984375 2.875,-0.8125 2.4375,-0.265625 2.03125,-0.109375 1.75,-0.109375 c -0.5,0 -0.640625,-0.546875 -0.640625,-0.9375 0,-0.5 0.3125,-1.71875 0.546875,-2.1875 0.3125,-0.578125 0.75,-0.953125 1.15625,-0.953125 0.640625,0 0.78125,0.8125 0.78125,0.875 0,0.0625 -0.015625,0.125 -0.03125,0.171875 z"
             id="path11029" />
        </symbol>
      </g>
    </defs>
    <g
       id="textext-fe145bb3-2">
      <g
         style="fill:#000000;fill-opacity:1"
         id="g11032">
        <use
           height="494"
           width="574"
           xlink:href="#textext-fe145bb3-1"
           x="223.43201"
           y="134.765"
           id="use11034" />
      </g>
    </g>
  </g>
  <path
     inkscape:connector-curvature="0"
     id="path11167"
     d="m 114.14724,31.350134 -36.365494,0"
     style="fill:none;stroke:#000000;stroke-width:1;stroke-linecap:butt;stroke-linejoin:miter;stroke-opacity:1;stroke-miterlimit:4;stroke-dasharray:8,4;stroke-dashoffset:0" />
  <path
     inkscape:connector-curvature="0"
     id="path11169"
     d="m 95.964492,31.350134 0,169.705626"
     style="fill:none;stroke:#000000;stroke-width:1px;stroke-linecap:butt;stroke-linejoin:miter;stroke-opacity:1;marker-start:url(#Arrow1Mstart);marker-end:url(#Arrow1Mend)" />
  <path
     inkscape:connector-curvature="0"
     id="path11539"
     d="m 335.37065,342.47712 51.51777,0"
     style="fill:none;stroke:#000000;stroke-width:1;stroke-linecap:butt;stroke-linejoin:miter;stroke-opacity:1;stroke-miterlimit:4;stroke-dasharray:8,4;stroke-dashoffset:0" />
  <path
     inkscape:connector-curvature="0"
     id="path11541"
     d="m 375.77675,341.46697 0,-140.41121"
     style="fill:none;stroke:#000000;stroke-width:1px;stroke-linecap:butt;stroke-linejoin:miter;stroke-opacity:1;marker-start:url(#Arrow1Mstart);marker-end:url(#Arrow1Mend)" />
  <g
     id="g12048"
     ns0:preamble=""
     ns0:text="$b$"
     transform="matrix(2.6506322,0,0,2.1493291,-215.02447,-8.5429309)">
    <defs
       id="defs12050">
      <g
         id="g12052">
        <symbol
           id="textext-f471689d-0"
           overflow="visible"
           style="overflow:visible">
          <path
             id="path12055"
             d=""
             style="stroke:none"
             inkscape:connector-curvature="0" />
        </symbol>
        <symbol
           id="textext-f471689d-1"
           overflow="visible"
           style="overflow:visible">
          <path
             id="path12058"
             d="m 2.375,-6.8125 c 0,0 0,-0.109375 -0.125,-0.109375 -0.21875,0 -0.953125,0.078125 -1.21875,0.109375 -0.078125,0 -0.1875,0.015625 -0.1875,0.1875 0,0.125 0.09375,0.125 0.25,0.125 0.46875,0 0.484375,0.0625 0.484375,0.171875 0,0.0625 -0.078125,0.40625 -0.125,0.609375 l -0.828125,3.25 c -0.109375,0.5 -0.15625,0.671875 -0.15625,1.015625 0,0.9375 0.53125,1.5625 1.265625,1.5625 1.171875,0 2.40625,-1.484375 2.40625,-2.921875 0,-0.90625 -0.53125,-1.59375 -1.328125,-1.59375 -0.453125,0 -0.875,0.296875 -1.171875,0.59375 z M 1.453125,-3.046875 C 1.5,-3.265625 1.5,-3.28125 1.59375,-3.390625 2.078125,-4.03125 2.53125,-4.1875 2.796875,-4.1875 c 0.359375,0 0.625,0.296875 0.625,0.9375 0,0.59375 -0.328125,1.734375 -0.515625,2.109375 -0.328125,0.671875 -0.78125,1.03125 -1.171875,1.03125 -0.34375,0 -0.671875,-0.265625 -0.671875,-1 0,-0.203125 0,-0.390625 0.15625,-1.015625 z"
             style="stroke:none"
             inkscape:connector-curvature="0" />
        </symbol>
      </g>
    </defs>
    <g
       id="textext-f471689d-2">
      <g
         id="g12061"
         style="fill:#000000;fill-opacity:1">
        <use
           id="use12063"
           y="134.765"
           x="223.43201"
           xlink:href="#textext-f471689d-1"
           width="574"
           height="494" />
      </g>
    </g>
  </g>
</svg>
